<?xml version="1.0" standalone="no"?>
<!DOCTYPE svg PUBLIC "-//W3C//DTD SVG 20010904//EN"
 "http://www.w3.org/TR/2001/REC-SVG-20010904/DTD/svg10.dtd">
<svg version="1.0" xmlns="http://www.w3.org/2000/svg"
 width="1800.000000pt" height="1200.000000pt" viewBox="0 0 1800.000000 1200.000000"
 preserveAspectRatio="xMidYMid meet">
<g transform="translate(0.000000,1200.000000) scale(0.040000,-0.040000)"
fill="currentColor" stroke="none">
<path d="M13375 28159 c0 -12 41 -66 90 -121 49 -55 128 -159 174 -231 133
-205 470 -380 736 -381 66 -1 154 -23 209 -53 99 -52 166 -50 166 8 0 18 -25
43 -55 57 -31 13 -104 86 -164 162 -175 220 -257 303 -340 340 -43 20 -95 46
-116 58 -21 12 -105 39 -187 60 -83 20 -201 50 -263 66 -187 49 -250 58 -250
35z"/>
<path d="M19835 28104 c-29 -23 -76 -82 -106 -132 -65 -109 -229 -252 -493
-429 -479 -323 -689 -746 -727 -1468 -12 -224 -87 -534 -138 -565 -11 -7 -21
-35 -21 -61 0 -90 93 -54 204 78 59 70 209 193 333 274 522 341 643 471 802
862 67 163 72 204 85 625 14 424 18 457 83 589 99 204 88 317 -22 227z m-446
-944 c2 -67 -13 -101 -68 -147 -39 -33 -71 -83 -71 -112 0 -29 -16 -59 -35
-66 -19 -7 -41 -46 -49 -87 -11 -52 -29 -73 -65 -73 -63 0 -65 -16 21 203 40
102 79 204 87 228 8 24 32 44 53 44 21 0 38 15 38 33 0 39 54 97 73 78 7 -8
14 -53 16 -101z m-278 -599 c62 -62 37 -137 -27 -83 -27 23 -34 12 -34 -53 l0
-82 -53 68 c-92 116 11 252 114 150z m-151 -232 c22 -36 -12 -118 -62 -150
-50 -31 -52 1 -9 140 11 35 52 41 71 10z"/>
<path d="M25724 27841 c-76 -72 -280 -116 -530 -116 -428 0 -658 -69 -857
-259 -121 -115 -487 -579 -487 -617 0 -45 75 -24 174 47 87 63 126 73 344 86
515 32 752 134 1082 469 89 90 216 207 281 260 66 52 119 111 119 130 0 44
-79 44 -126 0z"/>
<path d="M28810 26656 c-66 -212 -225 -358 -585 -536 -158 -78 -344 -158 -412
-178 -128 -36 -619 -249 -800 -346 -339 -181 -782 -599 -948 -894 -105 -187
-215 -411 -215 -439 0 -50 -76 -293 -115 -367 -19 -36 -35 -90 -35 -119 0
-151 -190 -572 -304 -674 -159 -142 6 -178 186 -41 63 48 163 103 222 122 60
19 260 83 446 141 435 138 856 296 1000 376 21 12 83 46 138 75 402 218 642
460 870 878 59 110 152 392 253 771 83 311 120 438 155 520 18 45 34 93 34
107 0 26 83 227 126 304 13 24 24 62 24 85 0 24 15 60 33 82 68 80 101 199 67
240 -57 68 -95 39 -140 -107z m-410 -742 c0 -34 -12 -68 -27 -77 -14 -9 -37
-45 -50 -79 -13 -35 -46 -69 -74 -76 -39 -10 -44 -21 -22 -47 32 -38 -20 -175
-98 -260 -85 -92 -156 -182 -257 -327 -81 -114 -116 -145 -151 -134 -51 16
-65 -28 -15 -46 17 -6 23 -20 13 -31 -10 -10 -36 -4 -59 15 -35 29 -46 27 -77
-15 -83 -111 -100 -128 -195 -199 -55 -40 -132 -105 -171 -143 -63 -62 -167
-96 -167 -54 0 9 75 87 167 175 136 129 157 159 113 159 -30 0 -55 -8 -55 -19
0 -10 -42 -47 -94 -81 -51 -34 -105 -75 -118 -91 -14 -16 -93 -85 -175 -154
-302 -250 -371 -324 -352 -372 17 -43 19 -43 50 -2 39 54 89 57 89 7 0 -21
-14 -38 -31 -38 -33 -1 -101 -51 -274 -206 -112 -100 -152 -118 -129 -56 8 20
24 37 37 37 12 0 22 23 22 50 0 79 -28 62 -209 -125 -93 -96 -180 -175 -192
-175 -30 0 79 202 174 323 42 53 77 107 77 120 0 13 47 62 104 109 57 47 137
122 179 167 41 44 92 81 112 81 20 0 84 42 142 94 201 180 268 231 303 231 19
0 35 9 35 19 0 10 34 34 75 52 42 18 343 301 669 628 326 327 602 596 612 598
11 2 19 -24 19 -58z m-825 -474 c0 -38 -204 -264 -240 -266 -12 0 -55 -27 -94
-59 -65 -53 -68 -62 -29 -83 41 -23 41 -28 -2 -78 -56 -66 -85 -69 -85 -8 0
87 -31 76 -171 -63 -78 -76 -178 -167 -223 -201 -44 -35 -81 -77 -81 -94 0
-16 -22 -50 -49 -75 -46 -41 -51 -41 -66 -4 -23 62 -60 49 -60 -21 0 -38 -14
-63 -36 -63 -20 0 -42 -21 -51 -48 -8 -26 -31 -54 -51 -61 -21 -8 -37 -31 -37
-51 0 -20 -21 -43 -46 -51 -26 -8 -82 -60 -126 -114 -44 -55 -91 -100 -104
-100 -37 0 -28 65 14 100 20 17 37 52 37 76 0 48 28 120 86 221 34 58 34 58
51 6 22 -71 58 -67 93 10 15 34 37 62 49 62 12 0 21 15 21 34 0 18 70 126 156
240 191 252 188 248 218 332 16 44 43 69 75 69 27 0 68 27 90 61 23 36 55 55
76 47 19 -7 52 0 73 17 26 22 37 23 37 3 0 -15 -11 -28 -25 -28 -14 0 -25 -13
-25 -29 0 -16 -19 -50 -41 -75 -81 -90 78 -55 176 38 49 46 137 116 196 156
59 40 115 86 126 104 27 42 68 39 68 -4z m450 -451 c0 -88 -212 -364 -279
-364 -75 0 -53 85 42 164 48 40 87 84 87 96 0 34 82 112 119 114 17 0 31 -4
31 -10z m-310 -394 c53 -55 -9 -170 -93 -170 -28 0 -80 -22 -115 -50 -35 -27
-79 -50 -97 -50 -18 0 -93 -62 -167 -137 -136 -139 -193 -169 -193 -100 0 20
17 37 38 37 20 0 37 14 37 31 0 17 34 54 75 82 41 27 75 61 75 76 0 53 103
136 170 137 58 0 61 4 24 26 -59 34 -55 64 10 81 35 9 66 0 84 -26 16 -22 42
-32 58 -22 40 25 36 65 -7 65 -20 0 -43 24 -52 53 -23 72 39 112 81 53 16 -24
49 -63 72 -86z m-731 -362 c60 39 141 57 141 31 0 -32 -133 -139 -173 -139
-27 0 -52 -24 -61 -56 -11 -45 -21 -49 -46 -24 -24 24 -25 42 -2 78 16 25 23
73 15 105 -14 57 -13 58 23 11 36 -46 41 -47 103 -6z"/>
<path d="M27530 24968 c-67 -47 -108 -118 -68 -118 20 0 168 153 158 163 -6 6
-46 -14 -90 -45z"/>
<path d="M26368 24000 c-45 -53 -56 -100 -24 -100 32 1 131 117 114 134 -26
26 -44 19 -90 -34z"/>
<path d="M26850 25025 c0 -27 6 -50 14 -50 7 0 37 23 67 50 l53 50 -67 0 c-50
0 -67 -12 -67 -50z"/>
<path d="M26750 24913 c0 -21 -11 -38 -25 -38 -14 0 -25 -19 -25 -42 0 -35 10
-32 62 16 34 32 56 68 48 80 -21 34 -60 24 -60 -16z"/>
<path d="M21000 25309 c-194 -31 -304 -80 -487 -217 -203 -151 -402 -373 -375
-418 19 -30 124 -31 181 -1 56 29 466 127 538 128 87 1 522 171 643 251 21 13
70 44 110 67 169 100 231 227 96 196 -94 -22 -477 -30 -568 -11 -42 8 -104 10
-138 5z"/>
<path d="M16667 24883 c-42 -41 -12 -133 58 -183 154 -109 287 -11 189 139
-39 60 -203 89 -247 44z"/>
<path d="M18919 24682 c-107 -54 -97 -167 20 -222 129 -61 183 -8 140 136 -34
116 -66 133 -160 86z"/>
<path d="M32337 24563 c-67 -33 -156 -69 -198 -78 -42 -9 -99 -28 -126 -42
-28 -15 -101 -26 -163 -24 -175 4 -525 -98 -750 -219 -332 -179 -589 -428
-737 -716 -88 -172 -175 -271 -352 -400 -134 -99 -65 -113 391 -83 226 14 453
37 504 50 265 67 317 84 436 140 266 125 545 401 709 701 29 52 74 129 100
171 26 41 63 108 83 150 19 41 93 130 163 199 199 192 169 267 -60 151z
m-1111 -651 c46 -56 -41 -212 -119 -212 -51 0 -54 6 -27 48 16 27 50 54 75 61
63 16 56 88 -11 115 -55 22 -56 23 -3 24 29 1 67 -15 85 -36z m-126 -35 c0
-13 -34 -40 -75 -61 -74 -36 -78 -24 -18 53 28 36 93 42 93 8z m101 -340 c17
-21 22 -46 12 -56 -11 -10 -25 -4 -31 13 -6 17 -26 31 -45 31 -19 0 -41 11
-49 25 -26 41 78 29 113 -13z m-451 -72 c0 -22 17 -31 47 -23 65 17 91 -34 28
-54 -27 -9 -50 -27 -50 -40 0 -13 -21 -23 -47 -23 -45 0 -90 130 -57 163 26
26 79 10 79 -23z"/>
<path d="M21088 23951 c-69 -25 -136 -63 -149 -84 -33 -52 25 -117 104 -117
83 0 333 -73 394 -116 27 -19 70 -34 95 -34 25 0 77 -16 116 -36 121 -63 397
-80 418 -26 12 31 -3 58 -50 93 -73 54 -207 182 -220 213 -62 139 -461 200
-708 107z"/>
<path d="M12918 23960 c-20 -21 5 -80 89 -203 39 -59 97 -201 129 -318 156
-567 303 -819 586 -1008 273 -181 639 -331 811 -331 175 0 449 -82 671 -200
22 -12 47 -15 56 -7 31 32 13 109 -29 125 -55 20 -153 122 -183 192 -13 29
-34 72 -48 96 -14 24 -36 64 -50 88 -14 24 -35 66 -47 94 -213 484 -501 811
-865 982 -213 99 -291 130 -333 130 -135 0 -497 159 -600 265 -102 104 -152
130 -187 95z m770 -739 c223 -208 299 -271 328 -271 19 0 48 -33 65 -74 39
-90 207 -226 279 -226 91 0 211 -129 182 -195 -34 -75 -44 -71 -156 58 -56 64
-119 112 -149 112 -28 0 -68 20 -90 44 -21 24 -66 66 -100 94 -33 27 -98 81
-144 119 -47 39 -114 114 -150 167 -36 53 -97 121 -134 151 -38 30 -63 65 -55
77 16 27 52 11 124 -56z m608 -793 c-42 -14 -79 40 -60 89 16 41 21 39 52 -17
21 -39 24 -66 8 -72z"/>
<path d="M17700 22940 c0 -96 350 -422 536 -500 101 -43 377 -55 400 -18 37
61 -473 428 -596 428 -16 0 -71 21 -122 47 -138 71 -218 86 -218 43z"/>
<path d="M20739 22891 c-27 -16 -73 -57 -104 -92 -61 -70 -254 -174 -322 -174
-62 0 -443 -94 -531 -131 -162 -69 -399 -293 -507 -479 -34 -60 -99 -170 -144
-246 -125 -212 -118 -223 73 -127 98 49 190 72 346 85 452 37 750 240 1017
695 78 132 155 252 172 266 41 34 91 192 68 214 -11 10 -41 5 -68 -11z m-839
-656 c0 -25 -111 -108 -145 -109 -18 -1 -2 27 35 62 64 59 110 79 110 47z"/>
<path d="M29006 22748 c-93 -98 -213 -201 -268 -229 -55 -28 -106 -59 -113
-68 -7 -10 -42 -34 -78 -53 -296 -160 -465 -252 -497 -270 -21 -13 -82 -42
-137 -66 -55 -24 -132 -59 -171 -78 -39 -19 -86 -34 -103 -34 -18 0 -46 -16
-62 -35 -16 -19 -59 -40 -97 -47 -75 -15 -252 -77 -367 -129 -236 -108 -373
-164 -400 -164 -18 0 -98 -29 -179 -66 -80 -36 -175 -74 -209 -85 -34 -12
-209 -73 -387 -137 -179 -64 -376 -132 -438 -151 -145 -44 -547 -181 -612
-208 -28 -12 -112 -39 -188 -60 -76 -21 -306 -91 -512 -155 -207 -64 -437
-134 -513 -155 -76 -21 -177 -54 -225 -72 -48 -18 -144 -51 -212 -72 -109 -34
-960 -315 -1175 -388 -114 -39 -584 -201 -727 -251 -480 -168 -1217 -530
-1415 -696 -288 -242 -481 -520 -569 -815 -71 -238 -67 -747 7 -923 23 -54 41
-145 41 -204 0 -257 180 -460 215 -243 75 462 668 827 1773 1092 151 36 336
82 412 103 76 20 289 76 475 124 186 48 371 98 413 111 41 13 142 35 225 48
82 13 181 36 220 51 39 15 146 44 237 64 149 33 616 157 893 238 55 16 154 45
221 65 67 19 146 35 176 35 30 0 66 11 79 24 13 13 69 34 124 47 111 27 164
45 525 178 403 148 419 154 546 189 67 19 180 62 250 95 71 34 213 98 316 142
1161 502 1703 962 2118 1800 97 196 232 526 232 568 0 17 16 67 34 112 19 46
56 150 81 233 25 82 94 259 153 394 167 380 143 410 -112 141z m-331 -559 c0
-20 -54 -90 -121 -156 -237 -236 -454 -488 -440 -510 7 -12 46 11 86 52 40 41
82 75 93 75 11 0 42 34 70 75 27 41 60 75 72 75 12 0 36 20 54 44 47 64 71 20
26 -48 -21 -33 -54 -106 -74 -162 -70 -198 -611 -825 -795 -923 -68 -36 -380
-269 -442 -329 -18 -17 -47 -32 -66 -32 -18 0 -39 -17 -47 -37 -8 -21 -37 -38
-64 -38 -27 0 -59 -16 -70 -36 -22 -39 -197 -164 -230 -164 -12 0 -54 -17 -93
-37 -79 -42 -225 -51 -238 -15 -15 40 -171 44 -171 4 0 -13 23 -31 51 -40 41
-13 46 -23 22 -52 -39 -47 -148 -46 -148 3 0 20 -22 37 -50 37 -59 0 -66 -38
-11 -60 22 -8 33 -25 25 -37 -15 -26 -336 -128 -399 -128 -22 0 -40 -10 -40
-23 0 -12 -34 -34 -75 -48 -41 -15 -75 -39 -75 -55 0 -20 -28 -24 -88 -13 -69
13 -103 5 -154 -35 -50 -39 -86 -48 -151 -36 -62 12 -93 5 -115 -24 -16 -22
-103 -58 -192 -80 -89 -23 -180 -57 -202 -76 -45 -40 -163 -47 -185 -11 -8 14
14 32 48 40 93 24 78 61 -24 61 -56 0 -94 -14 -103 -37 -10 -27 -51 -38 -135
-38 -67 0 -128 -11 -136 -25 -9 -14 -46 -25 -83 -26 -37 0 -112 -22 -167 -49
-55 -27 -148 -49 -207 -49 -58 -1 -106 -12 -106 -26 0 -38 254 -28 325 13 34
19 98 36 141 36 43 1 92 19 110 40 21 25 54 34 91 25 31 -8 79 -2 104 15 26
16 67 21 91 12 72 -27 -4 -91 -109 -91 -50 0 -122 -17 -160 -36 -38 -20 -155
-66 -262 -101 -106 -36 -232 -89 -281 -118 -112 -67 -255 -101 -408 -97 -66 2
-155 -13 -198 -35 -42 -21 -108 -38 -147 -38 -81 0 -272 -59 -390 -119 -68
-35 -98 -37 -188 -13 -88 23 -110 22 -126 -7 -12 -20 -58 -36 -106 -36 -61 0
-93 -15 -113 -52 -20 -37 -50 -50 -107 -47 -124 6 -142 2 -142 -38 0 -30 -33
-38 -150 -38 -83 0 -150 -11 -150 -25 0 -14 -28 -25 -63 -25 -35 0 -197 -45
-362 -100 -165 -55 -322 -100 -350 -100 -27 0 -74 -24 -103 -53 -29 -29 -97
-58 -150 -66 -54 -7 -104 -22 -112 -34 -7 -12 -35 -22 -62 -22 -27 0 -56 -17
-64 -37 -16 -42 -84 -52 -84 -13 0 14 -17 25 -37 25 -21 0 -38 -11 -38 -25 0
-14 -17 -25 -37 -25 -21 0 -38 -9 -38 -21 0 -12 -27 -33 -60 -48 -33 -15 -86
-73 -117 -129 -31 -56 -66 -102 -78 -102 -29 0 -25 69 5 88 14 8 25 58 25 110
0 55 16 109 38 127 20 17 37 44 37 60 0 16 35 67 78 114 48 53 80 116 82 162
3 53 18 79 51 85 26 5 97 59 158 119 61 61 121 110 132 110 11 0 48 34 83 75
34 41 75 75 89 75 54 0 130 101 114 151 -16 51 23 69 51 24 25 -42 65 0 49 51
-11 37 1 51 55 64 39 10 97 44 130 76 33 33 86 59 119 59 32 0 59 11 59 25 0
14 34 25 75 25 58 0 75 -11 75 -50 0 -54 108 -73 138 -25 8 14 43 25 77 25 34
0 68 17 76 38 8 20 42 37 75 37 69 0 103 59 62 109 -37 45 22 124 85 112 35
-6 47 -31 48 -96 1 -76 10 -88 70 -95 49 -6 69 3 69 31 0 21 -11 39 -25 39
-14 0 -25 11 -25 25 0 41 89 28 132 -19 36 -40 35 -49 -10 -103 -26 -33 -55
-53 -64 -44 -29 28 -103 -60 -91 -107 13 -49 -94 -94 -147 -61 -15 9 -40 1
-55 -18 -15 -20 -70 -58 -121 -85 -52 -27 -94 -59 -94 -72 0 -12 -30 -16 -67
-9 -69 13 -301 -89 -340 -151 -11 -17 -42 -31 -68 -31 -51 0 -90 -43 -63 -70
9 -9 50 3 92 27 41 24 101 43 132 43 32 0 72 17 89 38 17 20 63 37 102 37 43
0 84 20 108 53 29 42 53 51 111 39 66 -13 78 -6 101 59 27 78 94 98 147 45 23
-23 41 -20 76 12 26 23 78 42 117 42 75 0 263 73 263 102 0 9 101 24 225 34
123 10 231 28 239 41 8 13 61 23 119 23 58 0 131 18 163 40 42 30 86 35 178
23 114 -16 122 -14 130 41 10 71 117 97 151 36 12 -22 50 -40 84 -40 64 0 77
23 38 64 -45 46 42 127 98 92 68 -43 167 -39 184 7 16 42 105 50 129 12 19
-32 149 -33 206 -1 24 13 85 30 135 38 50 8 105 31 122 51 16 20 52 37 80 37
27 0 84 29 126 65 54 45 94 60 135 50 184 -47 190 -47 213 -6 13 23 54 41 95
41 68 0 71 5 58 84 -18 115 26 134 128 57 79 -61 85 -62 124 -19 48 54 30 78
-61 78 -37 0 -81 16 -98 36 -43 52 -95 22 -131 -77 -27 -75 -39 -84 -98 -71
-37 8 -74 5 -81 -8 -20 -31 -207 -24 -191 8 7 13 48 25 92 25 86 0 121 20 98
58 -26 42 -278 20 -327 -30 -58 -57 -159 -36 -221 48 -26 33 -65 61 -88 60
-38 -1 -38 -3 -2 -31 36 -28 89 -268 59 -268 -6 0 -54 27 -105 60 -137 87
-256 104 -256 37 0 -31 20 -57 51 -65 77 -20 44 -69 -54 -77 -66 -6 -100 8
-146 56 -80 85 -176 87 -176 3 0 -34 20 -72 43 -86 38 -21 35 -26 -26 -42 -48
-12 -83 -5 -114 24 -24 22 -56 40 -71 40 -15 0 -33 17 -41 38 -9 23 -48 37
-106 37 -89 0 -91 2 -75 80 22 111 53 136 104 84 46 -45 143 -41 355 18 109
30 129 60 75 114 -25 25 -23 36 6 55 57 36 125 28 125 -13 0 -21 14 -39 31
-41 80 -7 160 11 196 43 22 19 91 35 153 35 71 0 126 14 145 38 17 20 57 37
89 37 96 0 136 27 188 128 50 99 102 120 173 70 28 -20 30 -30 6 -39 -17 -7
-31 -29 -31 -49 0 -53 94 -42 125 15 21 39 52 50 140 50 73 0 107 9 97 26 -9
15 -46 23 -81 19 -35 -4 -69 7 -75 24 -13 39 147 43 186 4 45 -45 138 -3 120
54 -18 55 81 70 131 20 32 -32 107 -13 107 27 0 14 -23 26 -52 26 -79 0 -43
62 38 65 38 1 78 17 89 35 13 21 47 27 98 17 68 -14 82 -8 103 49 24 62 27 63
86 24 88 -58 121 -51 103 21 -19 76 24 106 80 57 67 -59 147 -75 163 -33 8 20
-2 50 -22 66 -38 32 -26 74 22 73 16 0 73 -41 126 -90 99 -92 94 -133 -17
-134 -25 0 -62 -17 -83 -37 -21 -21 -59 -38 -86 -38 -26 0 -48 -17 -48 -37 0
-21 18 -38 40 -38 62 0 293 83 331 119 18 17 53 31 78 31 25 0 52 17 60 38 8
20 42 37 75 37 33 0 67 17 75 38 8 20 43 37 79 37 35 0 70 17 78 38 8 20 41
37 73 37 32 0 65 11 73 24 8 14 59 36 113 51 62 17 127 61 182 126 47 54 98
99 113 99 15 0 37 16 48 35 11 19 41 38 67 43 68 13 81 72 17 72 -61 0 -69 38
-14 59 22 9 45 -1 53 -22 31 -82 154 1 170 114 6 47 122 130 180 130 51 0 108
39 217 148 81 81 179 164 218 184 38 20 94 70 124 112 56 79 125 100 125 39z
m-1235 -851 c-37 -35 -88 -63 -113 -63 -25 0 -60 -17 -77 -37 -17 -21 -45 -38
-62 -38 -18 0 -46 -17 -63 -37 -17 -21 -53 -38 -79 -38 -27 0 -75 -29 -108
-64 -52 -56 -65 -60 -111 -31 -63 39 -66 67 -8 86 78 25 217 96 251 128 19 17
49 31 67 31 30 0 85 24 238 103 21 10 59 20 85 21 41 1 38 -8 -20 -61z m-944
-271 c-47 -36 -33 -74 35 -99 60 -22 56 -111 -6 -130 -61 -20 -100 2 -100 55
0 22 -18 60 -39 84 -37 40 -34 46 31 81 88 46 135 51 79 9z m254 -69 c0 -39
-13 -50 -56 -43 -83 11 -90 95 -8 95 48 0 64 -13 64 -52z m-2273 -648 c13 0
23 -11 23 -25 0 -14 -34 -25 -75 -25 -72 0 -94 23 -58 59 10 10 33 12 52 4 20
-7 45 -13 58 -13z m-202 -100 c0 -14 -33 -25 -74 -25 -40 0 -80 11 -88 25 -10
15 20 25 73 25 49 0 89 -11 89 -25z m-750 -225 c0 -14 -10 -25 -23 -25 -13 0
-41 -7 -62 -15 -26 -10 -40 -2 -40 25 0 26 22 40 63 40 34 0 62 -11 62 -25z
m-408 -262 c70 -79 121 -113 166 -113 35 0 71 -11 79 -24 20 -33 -69 -76 -157
-76 -41 0 -88 -17 -106 -39 -41 -50 -186 -39 -186 14 0 24 29 40 81 45 94 9
111 55 19 55 -84 0 -120 73 -85 173 36 104 70 97 189 -35z m-247 -93 c6 -29
-20 -55 -81 -80 -64 -27 -89 -53 -89 -93 l0 -56 -57 54 -57 53 -107 -64 c-83
-49 -100 -71 -79 -96 43 -52 -19 -76 -72 -28 -58 52 -127 51 -167 -3 -30 -41
-34 -41 -84 3 -92 84 -69 143 48 125 104 -17 150 40 60 75 -34 13 -35 22 -8
55 30 36 36 35 67 -6 32 -44 37 -43 85 22 56 77 132 90 166 29 21 -37 31 -37
108 -3 175 79 254 83 267 13z m-1650 -300 c46 -46 39 -129 -10 -110 -21 8 -49
15 -62 15 -13 0 -23 28 -23 63 0 66 45 82 95 32z m-826 -465 c6 -17 -8 -30
-29 -30 -40 0 -139 -83 -142 -119 -1 -16 -109 -109 -278 -237 -32 -24 -72 -55
-89 -70 -17 -15 -44 -19 -58 -10 -31 19 144 197 377 381 161 127 200 142 219
85z m-394 -953 c0 -34 -146 -189 -162 -173 -8 7 9 42 37 77 27 36 50 77 50 92
0 15 17 27 38 27 20 0 37 -11 37 -23z"/>
<path d="M27800 21063 c-17 -21 -44 -38 -59 -38 -16 0 -60 -39 -98 -88 -48
-60 -59 -87 -34 -87 19 0 42 17 50 38 8 20 29 37 46 38 44 1 131 76 152 130
20 54 -15 58 -57 7z"/>
<path d="M27293 21035 c-33 -33 -19 -110 20 -110 40 0 43 14 16 83 -10 24 -26
37 -36 27z"/>
<path d="M26964 20878 c-7 -13 14 -41 48 -63 83 -54 92 -51 58 23 -28 62 -80
82 -106 40z"/>
<path d="M26786 20797 c-18 -29 30 -71 83 -72 17 0 31 23 31 50 0 55 -84 71
-114 22z"/>
<path d="M26656 20733 c-52 -21 -35 -58 27 -58 31 0 70 -13 87 -30 49 -49 62
-3 14 53 -45 52 -70 59 -128 35z"/>
<path d="M26525 20638 c0 -21 17 -38 38 -38 20 0 37 -18 37 -39 0 -27 18 -37
56 -31 69 9 65 54 -5 65 -28 5 -51 25 -51 44 0 20 -17 36 -37 36 -21 0 -38
-17 -38 -37z"/>
<path d="M26419 20465 c-60 -45 -55 -65 16 -65 49 0 90 40 90 90 0 22 -64 7
-106 -25z"/>
<path d="M25931 20421 c12 -39 119 -46 120 -8 0 13 -29 28 -65 33 -47 5 -63
-2 -55 -25z"/>
<path d="M25381 20394 c16 -48 94 -54 94 -8 0 23 -21 39 -52 39 -31 0 -48 -13
-42 -31z"/>
<path d="M25717 20359 c-26 -26 7 -59 59 -59 27 0 49 17 49 38 0 37 -77 52
-108 21z"/>
<path d="M25839 20212 c-37 -29 -42 -44 -20 -66 22 -22 22 -39 2 -63 -20 -25
-18 -33 7 -32 61 3 161 150 120 176 -46 29 -52 28 -109 -15z"/>
<path d="M24652 20184 c-32 -23 -94 -50 -137 -60 l-77 -19 85 -2 c47 -2 126
10 175 26 49 15 106 33 126 38 33 9 33 13 0 34 -54 34 -106 29 -172 -17z"/>
<path d="M25364 20162 c-27 -20 -83 -39 -125 -41 -73 -3 -73 -4 -10 -14 37 -5
81 -26 97 -46 47 -56 77 -42 69 33 -6 56 3 69 47 69 31 1 63 9 73 19 35 35
-103 16 -151 -20z"/>
<path d="M25610 20137 c-44 -33 -40 -35 46 -36 105 -1 116 10 47 47 -33 18
-59 15 -93 -11z"/>
<path d="M26481 20133 c-58 -23 -32 -58 44 -58 50 0 75 13 75 38 0 36 -56 46
-119 20z"/>
<path d="M25093 19681 c-24 -5 -37 -20 -29 -33 18 -29 104 -30 122 -1 17 28
-34 47 -93 34z"/>
<path d="M24831 19608 c-62 -24 -29 -58 57 -58 61 0 87 11 87 38 0 36 -77 47
-144 20z"/>
<path d="M24587 19500 c-8 -14 2 -32 24 -40 50 -20 164 9 164 40 0 33 -168 32
-188 0z"/>
<path d="M23289 19153 c-75 -30 -4 -58 98 -39 48 9 81 26 74 39 -17 26 -104
26 -172 0z"/>
<path d="M20775 19000 c0 -14 34 -25 76 -25 45 0 71 10 62 25 -9 14 -43 25
-77 25 -34 0 -61 -11 -61 -25z"/>
<path d="M22568 19008 c-62 -16 -28 -58 48 -58 38 0 59 12 53 30 -11 35 -41
43 -101 28z"/>
<path d="M22267 18933 c-34 -34 -15 -58 46 -58 69 0 83 36 22 60 -49 19 -48
19 -68 -2z"/>
<path d="M21911 18848 c-21 -35 -15 -38 95 -58 73 -13 94 -9 94 19 0 61 -155
94 -189 39z"/>
<path d="M21603 18778 c-44 -28 38 -78 127 -78 60 1 140 39 119 58 -27 26
-214 41 -246 20z"/>
<path d="M22806 22410 c-17 -8 -31 -25 -31 -39 0 -28 101 -119 133 -120 11 -1
56 -28 100 -61 116 -88 376 -168 596 -183 311 -22 403 25 227 115 -51 27 -127
83 -167 126 -40 42 -91 77 -113 77 -22 0 -65 17 -95 38 -56 40 -584 78 -650
47z"/>
<path d="M17169 21623 c-28 -16 -44 -56 -44 -111 0 -154 269 -232 331 -96 23
50 17 66 -40 111 -36 28 -82 68 -102 87 -41 42 -84 44 -145 9z"/>
<path d="M17735 21115 c-20 -52 76 -224 147 -262 70 -38 168 -3 168 59 0 144
-271 318 -315 203z"/>
<path d="M20605 20945 c-53 -53 -37 -270 24 -323 81 -71 163 -60 208 27 48 92
48 96 -6 92 -33 -3 -49 25 -66 115 -24 124 -89 160 -160 89z"/>
<path d="M15650 20424 c0 -146 -63 -300 -198 -485 -147 -203 -236 -458 -265
-763 -10 -103 -30 -205 -44 -228 -14 -23 -18 -61 -9 -85 14 -38 36 -26 148 77
72 67 178 165 235 218 191 177 356 503 357 705 1 92 -84 525 -121 618 -47 119
-103 87 -103 -57z"/>
<path d="M29136 19594 c-118 -132 -304 -269 -366 -269 -26 0 -72 -16 -102 -35
-31 -19 -140 -54 -243 -78 -312 -72 -426 -114 -721 -262 -276 -140 -834 -558
-879 -660 -7 -16 -58 -90 -113 -165 -164 -222 -262 -388 -262 -443 0 -28 -17
-65 -37 -82 -21 -17 -38 -46 -38 -64 0 -53 -163 -317 -247 -398 -137 -135 -77
-203 103 -117 79 38 172 54 357 61 384 16 853 105 974 185 27 18 74 33 104 33
112 0 540 362 739 625 81 107 395 714 395 764 0 75 280 627 357 703 151 150
168 175 168 241 0 101 -78 85 -189 -39z m-511 -596 c0 -15 -22 -34 -50 -41
-30 -8 -81 -76 -130 -176 -44 -90 -143 -231 -219 -313 -217 -235 -407 -418
-432 -418 -12 0 -89 -51 -169 -112 -80 -62 -152 -113 -158 -113 -7 0 -80 -67
-163 -150 -83 -82 -167 -150 -187 -150 -20 0 -50 -17 -67 -37 -17 -21 -51 -38
-74 -38 -24 0 -64 -22 -88 -50 -25 -27 -68 -50 -95 -50 -28 0 -62 -16 -78 -35
-15 -18 -60 -42 -101 -51 -67 -16 -70 -14 -37 28 63 81 532 533 553 533 11 0
20 12 20 26 0 31 656 694 745 754 35 23 76 78 91 123 30 91 210 206 267 170
20 -12 64 -1 112 28 43 27 97 49 119 49 23 0 41 11 41 25 0 14 23 25 50 25 27
0 50 -12 50 -27z m-750 -242 c-1 -25 -193 -231 -217 -231 -27 0 -381 -382
-383 -412 -1 -14 -48 -65 -104 -113 -56 -48 -136 -119 -177 -157 -144 -135
-127 -51 20 96 81 82 171 182 200 224 50 71 197 241 341 391 38 39 83 71 100
72 18 0 72 33 120 74 96 81 100 83 100 56z m464 -468 c-48 -103 -259 -319
-291 -299 -27 16 52 134 90 135 14 1 47 40 73 89 26 48 57 87 69 87 11 0 34
31 49 69 16 40 32 55 39 36 6 -17 -6 -70 -29 -117z m-607 -452 c-106 -105
-182 -161 -218 -161 -35 0 253 270 291 272 28 2 3 -36 -73 -111z"/>
<path d="M28100 18778 c0 -13 17 -29 38 -37 20 -8 37 -26 37 -40 0 -33 -92
-126 -125 -126 -14 0 -25 -11 -25 -25 0 -32 -93 -125 -125 -125 -14 0 -25 -11
-25 -25 0 -29 67 -34 79 -6 5 10 65 63 134 117 198 155 256 239 163 239 -26 0
-55 11 -63 25 -20 31 -88 33 -88 3z"/>
<path d="M27756 18284 c-39 -44 -73 -60 -108 -51 -43 11 -46 7 -20 -24 26 -31
15 -52 -63 -121 -61 -54 -83 -89 -65 -101 30 -18 350 291 350 338 0 42 -35 27
-94 -41z"/>
<path d="M27386 17980 c17 -53 -119 -167 -192 -161 -51 3 -60 -57 -11 -76 55
-21 167 11 167 47 0 19 11 35 25 35 14 0 25 22 25 48 0 26 12 52 26 57 32 10
4 95 -30 95 -14 0 -18 -20 -10 -45z"/>
<path d="M17450 19150 c0 -14 11 -45 24 -69 13 -24 49 -100 78 -168 30 -69 64
-132 76 -139 34 -22 122 -299 122 -383 0 -126 209 -510 381 -700 156 -173 417
-391 467 -391 65 0 220 -108 278 -194 82 -120 161 -142 143 -40 -14 74 -52
188 -111 325 -18 44 -33 134 -33 200 -1 124 -69 378 -135 503 -113 213 -446
498 -753 644 -124 59 -238 164 -372 343 -65 87 -165 128 -165 69z"/>
<path d="M25705 18339 c-45 -100 -200 -256 -312 -316 -406 -214 -721 -335
-1193 -458 -89 -23 -213 -58 -275 -77 -62 -19 -264 -70 -450 -114 -186 -44
-495 -119 -687 -167 -193 -49 -412 -103 -488 -122 -156 -38 -351 -94 -462
-133 -42 -14 -177 -61 -300 -104 -909 -316 -1353 -721 -1563 -1423 -80 -267
-36 -918 76 -1127 13 -25 24 -90 24 -145 0 -70 18 -121 61 -170 l61 -70 40
100 c127 316 335 605 538 745 62 43 132 96 157 118 24 23 75 57 112 76 38 19
121 66 186 105 134 80 787 368 836 368 18 0 69 16 114 35 46 19 229 88 408
153 469 170 851 331 1037 436 90 50 225 123 300 160 427 214 987 669 1248
1015 160 212 377 536 377 563 0 9 56 103 125 208 129 196 159 321 91 377 -26
21 -39 14 -61 -33z m-602 -738 c-186 -179 -261 -231 -539 -376 -218 -113 -285
-156 -432 -275 -16 -14 -39 -25 -50 -26 -33 -1 -132 -93 -132 -122 0 -46 81
-30 142 28 58 54 234 128 255 107 17 -18 -120 -137 -158 -137 -18 0 -46 -16
-62 -35 -16 -19 -57 -42 -92 -51 -34 -9 -109 -49 -165 -90 -56 -41 -116 -74
-133 -74 -17 0 -45 -17 -62 -37 -17 -21 -56 -38 -87 -38 -32 0 -71 -17 -88
-37 -17 -21 -59 -38 -92 -38 -34 0 -79 -17 -100 -38 -22 -22 -58 -32 -85 -24
-33 11 -66 -6 -106 -53 -59 -68 -117 -66 -117 4 0 53 -94 44 -143 -14 -24 -28
-74 -50 -112 -50 -57 0 -68 -10 -63 -56 4 -46 -6 -55 -55 -50 -33 4 -78 -9
-100 -27 -22 -19 -90 -58 -152 -86 -113 -52 -418 -191 -512 -233 -28 -12 -140
-51 -250 -86 -305 -97 -893 -435 -1108 -635 -85 -79 -130 -97 -130 -51 0 32
32 73 171 216 60 62 102 118 94 126 -20 21 -133 -60 -258 -185 -62 -61 -117
-106 -123 -100 -23 23 204 429 277 497 74 68 75 71 29 107 -45 35 -46 40 -7
83 23 26 42 66 42 89 0 23 20 49 44 57 96 30 164 73 174 110 5 21 43 53 84 71
41 18 88 46 106 62 36 33 97 73 203 135 40 24 99 70 130 102 39 41 72 53 108
42 33 -11 74 1 117 35 36 29 87 52 112 52 26 0 47 17 47 38 0 47 51 48 114 0
49 -37 41 -43 -51 -48 -28 -1 -50 -19 -50 -40 0 -53 186 -45 225 9 32 44 125
55 148 18 30 -48 -17 -107 -77 -95 -37 7 -59 -1 -59 -21 0 -21 -63 -38 -194
-50 -106 -9 -201 -29 -210 -44 -12 -18 -30 -16 -57 7 -56 46 -83 9 -31 -43 35
-35 52 -37 91 -12 31 19 54 21 64 5 20 -32 130 -31 150 1 21 35 146 31 182 -5
23 -23 37 -19 64 16 25 36 52 43 111 31 84 -17 135 23 77 61 -28 19 -27 29 9
56 24 19 44 47 44 63 0 15 -20 28 -44 29 -50 1 -156 82 -156 120 0 37 160 129
225 129 31 0 70 -18 86 -40 26 -35 42 -32 150 25 67 36 152 65 190 65 37 0 82
17 99 38 17 20 58 37 91 37 33 0 67 -17 75 -37 24 -62 84 -44 84 25 0 34 10
62 23 62 13 0 40 7 62 15 26 10 49 -6 68 -49 33 -73 94 -104 131 -67 18 18 10
38 -29 65 -75 53 -69 107 14 127 38 9 91 32 118 50 27 19 72 34 100 35 28 0
72 17 99 37 27 20 74 37 105 37 31 0 64 12 73 27 15 25 140 23 236 -4 24 -7
36 6 34 33 -3 34 16 44 80 44 46 0 90 11 99 25 8 14 42 25 76 25 34 0 61 11
61 25 0 13 28 31 62 40 65 16 295 130 433 215 109 67 262 143 290 144 13 1
-36 -55 -107 -123z"/>
<path d="M23691 17038 c-21 -21 -70 -38 -110 -38 -62 0 -181 -91 -181 -138 0
-31 84 -5 196 61 68 40 143 76 168 81 24 5 49 23 55 40 14 44 -82 39 -128 -6z"/>
<path d="M23819 16929 c-77 -46 -89 -79 -29 -79 48 0 185 78 185 105 0 32 -82
18 -156 -26z"/>
<path d="M23807 16740 c-11 -19 -41 -38 -67 -43 -27 -5 -53 -24 -59 -41 -15
-45 93 -39 110 7 8 20 41 37 74 37 37 0 60 15 60 38 0 47 -91 49 -118 2z"/>
<path d="M22318 16534 c-10 -9 -18 -27 -18 -40 0 -30 125 -13 132 19 6 29 -89
47 -114 21z"/>
<path d="M20917 15983 c-31 -30 -18 -83 21 -83 20 0 37 22 37 50 0 50 -27 65
-58 33z"/>
<path d="M32227 18015 c-86 -104 -600 -264 -852 -266 -240 -1 -701 -201 -1011
-437 -238 -182 -299 -244 -471 -477 -98 -132 -190 -223 -407 -402 -99 -83 -58
-118 111 -96 77 11 208 22 291 26 372 18 604 44 666 77 38 19 90 35 117 35
101 0 479 214 662 375 103 91 292 331 292 371 0 13 18 38 40 56 22 18 102 116
179 218 78 104 208 236 297 301 125 93 157 130 158 185 1 76 -27 89 -72 34z
m-1375 -1017 c29 -29 45 -60 36 -69 -10 -9 -31 3 -49 27 -18 24 -50 44 -73 44
-23 0 -41 11 -41 25 0 43 73 27 127 -27z m-128 -77 c48 -64 50 -76 15 -63 -24
10 -71 24 -104 32 -58 15 -78 59 -43 93 34 34 75 15 132 -62z m-355 -115 c6
-19 -14 -31 -54 -31 -64 0 -83 24 -47 59 25 26 89 8 101 -28z m-162 -71 c24
-24 -9 -85 -47 -85 -39 0 -41 5 -20 60 16 42 41 51 67 25z"/>
<path d="M25194 16331 c-108 -186 -160 -233 -506 -455 -178 -113 -200 -126
-258 -151 -32 -14 -116 -52 -188 -86 -142 -67 -325 -138 -704 -276 -138 -50
-287 -107 -333 -127 -45 -20 -108 -36 -141 -36 -33 0 -135 -34 -226 -75 -92
-41 -183 -75 -202 -75 -35 0 -165 -51 -294 -115 -39 -19 -81 -35 -93 -35 -59
0 -425 -193 -619 -326 -603 -413 -930 -920 -930 -1441 0 -311 148 -713 375
-1021 106 -144 469 -474 548 -499 66 -21 66 -22 -23 -238 -212 -515 30 -1143
641 -1663 193 -164 260 -250 296 -381 21 -71 91 -72 135 -2 41 66 42 345 1
471 -66 206 -95 480 -73 679 30 258 153 453 534 843 388 397 372 380 457 491
88 114 280 432 339 562 147 324 232 542 271 700 57 233 80 318 103 388 26 76
73 269 125 508 24 111 23 138 -6 156 -41 25 -84 -22 -197 -214 -99 -169 -350
-422 -672 -675 -147 -115 -299 -236 -340 -268 -40 -31 -109 -80 -153 -107
-521 -325 -1168 -886 -1250 -1083 -24 -58 -49 -81 -79 -75 -38 8 -44 35 -40
188 13 464 188 688 935 1195 1028 698 1671 1352 2245 2286 104 169 403 763
403 801 0 15 18 54 40 88 44 68 30 187 -22 187 -17 0 -61 -53 -99 -119z m-981
-1132 c20 -33 -32 -99 -79 -99 -20 0 -34 26 -34 63 0 65 80 90 113 36z m-168
-54 c52 -52 33 -77 -45 -61 -41 8 -75 4 -75 -9 0 -13 -28 -31 -62 -40 -35 -8
-63 -31 -63 -50 0 -19 -22 -35 -50 -35 -58 0 -60 -7 -20 -117 28 -78 25 -86
-50 -154 -44 -39 -80 -83 -80 -97 0 -14 -17 -40 -37 -57 -21 -17 -38 -58 -38
-91 0 -64 -46 -76 -126 -33 -67 35 -168 -32 -168 -112 0 -71 -95 -214 -142
-214 -18 0 -39 -22 -46 -50 -10 -37 -34 -50 -93 -50 -64 0 -77 -8 -65 -40 10
-26 -15 -75 -69 -134 -78 -87 -89 -91 -146 -61 -77 40 -219 -44 -220 -130 0
-64 -102 -164 -118 -116 -18 52 -62 35 -45 -18 12 -36 -17 -77 -117 -168 -266
-243 -345 -336 -420 -495 -42 -90 -87 -163 -100 -163 -14 0 -25 -18 -25 -39 0
-21 -10 -32 -23 -25 -14 9 -9 44 12 83 20 38 36 99 36 136 0 37 11 74 24 82
14 8 44 55 67 104 39 83 40 91 1 113 -37 21 -35 33 25 123 36 55 80 95 96 89
17 -7 110 63 206 155 214 203 386 490 265 444 -22 -9 -54 -5 -71 9 -20 17 -51
15 -96 -6 -79 -36 -87 -82 -17 -100 67 -18 63 -89 -6 -116 -31 -12 -83 -50
-116 -86 -46 -49 -75 -60 -130 -49 -59 11 -92 -7 -215 -120 -80 -74 -150 -144
-155 -156 -5 -12 -30 -40 -56 -62 -26 -22 -47 -70 -47 -107 0 -36 -16 -104
-36 -151 -19 -47 -43 -158 -53 -247 -37 -340 -105 -314 -129 49 -13 198 -8
232 39 309 30 47 54 109 54 138 0 54 74 212 106 226 11 4 19 24 19 43 0 19 24
47 54 63 l54 29 -57 43 c-61 46 -33 94 38 66 20 -7 53 -7 74 1 41 16 51 84 12
84 -52 0 -19 45 185 251 248 250 276 274 325 274 20 0 44 12 53 27 9 14 41 37
71 49 29 13 76 37 104 53 99 58 125 72 162 87 124 50 252 116 264 136 8 13 40
23 72 23 32 0 72 17 89 38 17 20 49 37 72 37 22 0 114 36 203 79 89 43 196 93
238 109 41 17 165 77 275 132 212 107 284 123 332 75z m-195 -490 c0 -11 -51
-69 -112 -130 -136 -133 -151 -96 -19 46 91 99 131 124 131 84z m-2650 -1391
c0 -63 -37 -106 -60 -69 -18 30 11 130 38 130 12 0 22 -27 22 -61z m2206 -581
c-17 -6 -31 -28 -31 -48 0 -20 -17 -43 -37 -51 -21 -8 -38 -30 -38 -50 0 -20
-17 -42 -37 -50 -21 -8 -38 -34 -38 -59 0 -24 -17 -58 -38 -75 -29 -25 -31
-39 -8 -67 24 -29 13 -52 -57 -116 -48 -44 -131 -136 -186 -204 -54 -69 -125
-146 -157 -172 -32 -26 -68 -71 -81 -101 -13 -29 -45 -86 -71 -127 -27 -42
-78 -135 -114 -207 -37 -72 -83 -131 -102 -131 -43 0 -42 -7 -13 94 30 104 -5
125 -64 37 -34 -51 -47 -118 -49 -256 -1 -103 -19 -261 -39 -350 -35 -156 -37
-159 -54 -78 -31 152 -21 221 33 235 56 15 73 176 22 207 -38 24 -71 -36 -72
-131 0 -43 -14 -83 -31 -89 -20 -7 -33 -82 -39 -221 -13 -352 -57 -357 -91
-10 -29 290 58 638 184 737 9 7 61 69 115 138 55 68 112 136 126 150 54 49
186 232 186 257 0 13 18 32 40 40 34 13 35 22 8 55 -39 47 78 171 227 241 48
22 175 126 282 230 107 104 208 188 225 187 23 -1 23 -5 -1 -15z m-106 -532
c0 -12 -12 -30 -27 -39 -14 -9 -36 -44 -49 -77 -12 -33 -34 -60 -48 -60 -40 0
-31 75 11 91 20 7 43 35 51 61 16 49 62 67 62 24z m-750 -201 c0 -14 -8 -25
-19 -25 -31 -1 -317 -282 -370 -362 -79 -123 -108 -173 -133 -229 -14 -30 -36
-61 -50 -69 -13 -9 -32 -49 -41 -90 -9 -41 -26 -75 -39 -75 -43 0 -23 162 36
288 115 245 616 703 616 562z"/>
<path d="M23300 14775 c0 -14 -13 -25 -28 -25 -24 0 -175 -63 -522 -219 -48
-21 -132 -68 -187 -103 -105 -67 -264 -158 -350 -200 -97 -47 -221 -180 -194
-207 28 -28 119 13 281 129 149 106 362 225 403 225 11 0 70 34 131 75 61 41
123 75 138 75 45 0 232 105 244 138 6 16 57 45 112 63 126 42 147 74 48 74
-42 0 -76 -11 -76 -25z"/>
<path d="M22875 14325 c0 -14 20 -25 45 -25 25 0 58 -13 75 -30 16 -16 37 -21
47 -12 23 23 -68 90 -123 91 -24 1 -44 -10 -44 -24z"/>
<path d="M16120 15987 c-7 -7 -106 -24 -219 -37 -260 -29 -356 -96 -217 -149
33 -12 144 -79 247 -148 286 -193 357 -214 707 -212 309 2 671 35 700 64 33
32 -13 63 -111 77 -97 13 -240 98 -437 261 -54 44 -156 98 -229 119 -125 36
-413 53 -441 25z"/>
<path d="M28076 15672 c-146 -70 -190 -78 -450 -87 -159 -6 -412 -15 -563 -22
-572 -24 -892 -168 -1326 -597 -245 -242 -558 -491 -616 -491 -68 0 -130 -62
-92 -92 30 -24 621 -62 1046 -67 306 -4 767 108 1038 252 239 128 590 433 816
708 126 154 263 292 335 340 71 46 82 134 17 134 -24 -1 -116 -35 -205 -78z
m-607 -428 c-16 -48 -119 -55 -119 -8 0 25 23 39 65 39 40 0 60 -12 54 -31z
m-709 -64 c6 -11 -20 -51 -59 -88 -64 -60 -80 -64 -143 -39 l-70 28 79 34 c43
18 86 45 95 59 19 31 80 34 98 6z m551 -3 c18 -28 -191 -152 -258 -152 -27 0
-57 -11 -65 -25 -9 -14 -48 -25 -87 -25 -40 0 -77 -16 -85 -37 -9 -24 -47 -38
-103 -38 -57 0 -95 -14 -104 -37 -8 -21 -29 -38 -48 -38 -18 0 -43 -16 -54
-35 -25 -44 -261 -65 -275 -23 -5 16 16 37 48 47 32 9 106 50 166 90 60 40
158 79 219 88 60 8 122 30 138 49 15 19 56 34 89 34 51 0 59 9 44 54 -14 45
-10 50 30 34 101 -43 183 -44 199 -3 16 43 123 55 146 17z m-1069 -490 l121
-63 -131 5 c-72 3 -139 -2 -148 -12 -26 -26 -129 -21 -146 7 -8 14 13 32 47
40 35 9 76 32 92 51 37 44 23 46 165 -28z"/>
<path d="M18186 15566 c-8 -32 4 -125 27 -206 23 -81 51 -232 63 -335 46 -412
74 -524 195 -775 74 -155 326 -380 568 -507 243 -128 331 -194 398 -299 82
-129 167 -56 104 90 -19 43 -48 112 -65 154 -18 41 -42 214 -54 384 -34 482
-110 596 -672 1017 -254 190 -330 262 -406 385 -102 164 -135 183 -158 92z
m759 -1324 c9 -73 -30 -92 -55 -27 -25 65 -17 115 16 104 17 -6 35 -40 39 -77z"/>
<path d="M13750 14209 c0 -27 31 -67 70 -90 116 -68 232 -202 367 -426 71
-116 171 -269 223 -340 102 -139 442 -403 519 -403 27 0 81 -17 120 -37 40
-21 202 -71 361 -111 159 -41 342 -98 405 -126 64 -28 138 -51 164 -51 61 0
90 74 44 110 -60 46 -166 222 -199 328 -133 425 -331 712 -624 901 -232 150
-435 197 -824 191 -237 -3 -324 4 -367 32 -98 65 -259 78 -259 22z m993 -459
c7 -27 23 -50 36 -50 31 0 271 -179 332 -247 35 -40 41 -61 20 -82 -37 -37
-98 3 -301 199 -86 83 -171 157 -187 164 -22 9 -20 19 7 39 55 39 78 33 93
-23z m7 -200 c28 -27 38 -50 23 -50 -15 0 -56 23 -91 50 -47 37 -53 50 -23 50
23 0 64 -22 91 -50z m658 -339 c39 -47 64 -96 55 -110 -30 -48 -90 -26 -120
43 -20 46 -46 67 -74 61 -51 -10 -54 4 -19 71 32 58 67 44 158 -65z"/>
<path d="M27988 13557 c-28 -7 -65 -25 -84 -39 -18 -15 -86 -35 -150 -45 -649
-99 -818 -176 -1118 -509 -95 -106 -177 -203 -182 -215 -15 -44 117 -54 188
-14 39 22 183 61 321 88 398 78 706 241 982 521 179 181 193 249 43 213z"/>
<path d="M18501 12571 c1 -79 183 -211 383 -278 84 -28 190 -69 235 -90 72
-35 84 -35 119 -1 72 72 -182 360 -338 383 -338 50 -400 48 -399 -14z"/>
<path d="M16344 12334 c-103 -43 -114 -80 -55 -171 47 -71 162 -102 235 -64
69 38 68 159 -4 225 -64 60 -56 59 -176 10z"/>
<path d="M19581 11399 c-77 -31 -75 -147 4 -204 110 -80 178 -81 238 -5 l54
69 -70 68 c-83 81 -150 102 -226 72z"/>
<path d="M24387 10906 c-157 -113 -138 -381 26 -381 77 0 112 66 112 209 0
175 -49 236 -138 172z"/>
<path d="M18700 10112 c-37 -45 -32 -52 79 -108 55 -27 138 -123 246 -281 89
-132 179 -262 200 -290 44 -57 360 -308 389 -308 11 0 94 -30 184 -66 90 -36
255 -76 365 -89 110 -12 235 -40 277 -63 82 -42 160 -31 160 23 0 18 -67 86
-149 152 -102 83 -177 172 -241 288 -168 304 -447 537 -705 588 -144 29 -323
71 -442 105 -69 19 -154 42 -188 51 -34 8 -81 20 -103 26 -22 6 -54 -6 -72
-28z"/>
<path d="M26078 9710 c-117 -125 -427 -285 -550 -285 -37 0 -90 -17 -117 -37
-27 -20 -70 -37 -96 -37 -159 -3 -627 -379 -736 -592 -27 -53 -123 -175 -214
-271 -220 -234 -217 -256 24 -203 82 18 261 47 399 65 520 67 924 380 1164
900 22 48 93 163 158 256 187 267 164 413 -32 204z"/>
<path d="M22711 7856 c-14 -10 -41 -55 -59 -100 -60 -148 78 -214 210 -100 64
55 65 58 25 138 -40 80 -113 106 -176 62z"/>
</g>
</svg>
